<svg width="18" height="18" viewBox="0 0 18 18" fill="none" xmlns="http://www.w3.org/2000/svg">
<g clip-path="url(#clip0_202_1499)">
<path d="M9.5325 8.46751C9.3923 8.33009 9.20381 8.25311 9.0075 8.25311C8.81118 8.25311 8.62269 8.33009 8.4825 8.46751L6.2325 10.6425C6.15291 10.7082 6.08774 10.7896 6.04104 10.8816C5.99435 10.9736 5.96714 11.0742 5.96112 11.1772C5.9551 11.2802 5.97039 11.3834 6.00605 11.4802C6.04171 11.577 6.09696 11.6654 6.16835 11.7399C6.23974 11.8144 6.32573 11.8734 6.42095 11.9131C6.51616 11.9529 6.61855 11.9725 6.72172 11.9709C6.82488 11.9693 6.9266 11.9464 7.02051 11.9036C7.11442 11.8609 7.1985 11.7992 7.2675 11.7225L8.25 10.77V15C8.25 15.1989 8.32901 15.3897 8.46967 15.5303C8.61032 15.671 8.80108 15.75 9 15.75C9.19891 15.75 9.38967 15.671 9.53033 15.5303C9.67098 15.3897 9.75 15.1989 9.75 15V10.8075L10.7175 11.7825C10.7872 11.8528 10.8702 11.9086 10.9616 11.9467C11.053 11.9848 11.151 12.0044 11.25 12.0044C11.349 12.0044 11.447 11.9848 11.5384 11.9467C11.6298 11.9086 11.7128 11.8528 11.7825 11.7825C11.8528 11.7128 11.9086 11.6298 11.9467 11.5384C11.9847 11.447 12.0043 11.349 12.0043 11.25C12.0043 11.151 11.9847 11.053 11.9467 10.9616C11.9086 10.8702 11.8528 10.7872 11.7825 10.7175L9.5325 8.46751Z" fill="#64748B"/>
<path d="M13.2525 5.24999C12.9465 4.36578 12.3725 3.59895 11.6103 3.05621C10.8481 2.51346 9.93572 2.2218 9.00004 2.2218C8.06437 2.2218 7.15197 2.51346 6.38979 3.05621C5.62762 3.59895 5.05357 4.36578 4.74754 5.24999C4.07371 5.34024 3.43708 5.61197 2.90577 6.03613C2.37446 6.46028 1.96844 7.0209 1.73117 7.658C1.49389 8.29511 1.43428 8.98473 1.5587 9.6531C1.68312 10.3215 1.9869 10.9434 2.43754 11.4525C2.49198 11.5484 2.56688 11.6311 2.65692 11.6947C2.74697 11.7583 2.84993 11.8013 2.95848 11.8206C3.06704 11.8399 3.17851 11.8351 3.28497 11.8064C3.39143 11.7777 3.49025 11.7258 3.57439 11.6546C3.65854 11.5834 3.72594 11.4944 3.77181 11.3942C3.81767 11.2939 3.84086 11.1848 3.83973 11.0745C3.83859 10.9643 3.81317 10.8556 3.76526 10.7563C3.71735 10.657 3.64814 10.5695 3.56254 10.5C3.27238 10.1756 3.08253 9.77398 3.01601 9.34386C2.94949 8.91373 3.00914 8.47354 3.18775 8.07664C3.36636 7.67974 3.65625 7.34315 4.02229 7.10768C4.38833 6.87221 4.81481 6.74796 5.25004 6.74998H5.32504C5.5005 6.75352 5.67165 6.69542 5.80869 6.58579C5.94573 6.47616 6.03998 6.32194 6.07504 6.14998C6.21275 5.47181 6.58068 4.8621 7.11649 4.42416C7.6523 3.98622 8.32303 3.74698 9.01504 3.74698C9.70706 3.74698 10.3778 3.98622 10.9136 4.42416C11.4494 4.8621 11.8173 5.47181 11.955 6.14998C11.9901 6.32194 12.0844 6.47616 12.2214 6.58579C12.3584 6.69542 12.5296 6.75352 12.705 6.74998H12.75C13.1853 6.74796 13.6118 6.87221 13.9778 7.10768C14.3438 7.34315 14.6337 7.67974 14.8123 8.07664C14.9909 8.47354 15.0506 8.91373 14.9841 9.34386C14.9176 9.77398 14.7277 10.1756 14.4375 10.5C14.3715 10.5741 14.3208 10.6605 14.2884 10.7544C14.256 10.8482 14.2425 10.9475 14.2488 11.0466C14.2551 11.1457 14.281 11.2425 14.325 11.3315C14.3689 11.4205 14.4302 11.4998 14.505 11.565C14.6418 11.6856 14.8177 11.7522 15 11.7525C15.1065 11.7524 15.2118 11.7295 15.3088 11.6856C15.4057 11.6416 15.4923 11.5775 15.5625 11.4975C16.0257 10.9893 16.3402 10.3636 16.4717 9.68874C16.6032 9.01388 16.5467 8.31585 16.3082 7.67096C16.0698 7.02608 15.6586 6.45916 15.1197 6.03219C14.5808 5.60521 13.9349 5.33462 13.2525 5.24999V5.24999Z" fill="#64748B"/>
</g>
<defs>
<clipPath id="clip0_202_1499">
<rect width="18" height="18" fill="white"/>
</clipPath>
</defs>
</svg>
