<svg xmlns="http://www.w3.org/2000/svg" xmlns:xlink="http://www.w3.org/1999/xlink" width="1200" zoomAndPan="magnify" viewBox="0 0 900 207.000001" height="276" preserveAspectRatio="xMidYMid meet" version="1.0"><defs><g/><clipPath id="d0ea5af999"><path d="M 204 10.4375 L 273.203125 10.4375 L 273.203125 196.933594 L 204 196.933594 Z M 204 10.4375 " clip-rule="nonzero"/></clipPath><clipPath id="98dc09c510"><path d="M 50.777344 10.4375 L 121 10.4375 L 121 196.933594 L 50.777344 196.933594 Z M 50.777344 10.4375 " clip-rule="nonzero"/></clipPath><clipPath id="872cbc8d6c"><path d="M 307 35 L 578 35 L 578 110.097656 L 307 110.097656 Z M 307 35 " clip-rule="nonzero"/></clipPath></defs><path fill="#6674cc" d="M 162.507812 109.328125 C 158.695312 110.707031 155.074219 112.464844 151.882812 115.019531 C 145.328125 120.265625 141.351562 127.136719 139.507812 135.328125 C 138.5625 139.535156 138.148438 143.796875 138.226562 148.105469 C 138.433594 159.351562 146.042969 168.808594 156.617188 171.472656 C 157.015625 171.574219 157.410156 171.695312 157.792969 171.835938 C 125.8125 169.59375 100.089844 137.359375 109.160156 102.136719 C 113.738281 108.023438 119.21875 112.730469 125.558594 116.5625 C 125.769531 116.019531 125.566406 115.566406 125.539062 115.128906 C 125.136719 109.089844 125.179688 103.058594 125.679688 97.019531 C 126.21875 90.515625 127.210938 84.097656 128.949219 77.8125 C 131.757812 67.679688 136.164062 58.402344 143.320312 50.621094 C 148.472656 45.015625 154.632812 40.890625 161.632812 38.03125 C 161.894531 37.921875 162.179688 37.863281 162.457031 37.78125 C 162.472656 38.324219 162.5 38.867188 162.5 39.410156 C 162.503906 62.714844 162.503906 86.023438 162.507812 109.328125 Z M 162.507812 109.328125 " fill-opacity="1" fill-rule="nonzero"/><g clip-path="url(#d0ea5af999)"><path fill="#868686" d="M 246.300781 60.355469 C 246.210938 62.746094 246.261719 65.648438 246.480469 68.527344 C 246.902344 74.113281 248.617188 79.25 251.835938 83.890625 C 255.03125 88.496094 259.222656 91.757812 264.28125 93.964844 C 266.476562 94.921875 268.777344 95.535156 271.132812 95.882812 C 272.707031 96.113281 273.8125 97.3125 273.796875 98.816406 C 273.761719 101.925781 273.867188 105.039062 273.753906 108.152344 C 273.695312 109.757812 272.972656 110.726562 271.464844 111.113281 C 267.851562 112.039062 264.261719 113 260.984375 114.914062 C 255.992188 117.835938 252.1875 121.863281 249.535156 127.03125 C 247.796875 130.414062 246.917969 134.023438 246.394531 137.800781 C 245.875 141.527344 246.109375 145.238281 246.09375 148.953125 C 246.082031 152.320312 246.015625 155.695312 245.617188 159.023438 C 244.910156 164.9375 242.972656 170.457031 239.882812 175.566406 C 234.265625 184.851562 226.386719 191.296875 216.226562 194.859375 C 213.609375 195.777344 210.894531 196.34375 208.132812 196.65625 C 205.617188 196.945312 204.4375 195.898438 204.429688 193.320312 C 204.425781 191.003906 204.429688 188.6875 204.441406 186.371094 C 204.445312 185.386719 204.621094 184.410156 205.09375 183.5625 C 205.730469 182.425781 206.976562 182.1875 208.109375 181.917969 C 218.347656 179.453125 225.652344 173.46875 229.574219 163.519531 C 231.234375 159.3125 231.953125 154.878906 231.976562 150.335938 C 231.996094 145.449219 232.011719 140.5625 232.105469 135.679688 C 232.152344 133.039062 232.886719 130.496094 233.574219 127.976562 C 234.714844 123.789062 236.628906 119.9375 238.949219 116.289062 C 241.175781 112.796875 243.910156 109.765625 247.007812 107.058594 C 247.601562 106.539062 248.195312 106.011719 248.75 105.449219 C 249.878906 104.304688 249.898438 103.445312 248.695312 102.308594 C 247 100.703125 245.199219 99.21875 243.578125 97.523438 C 239.371094 93.128906 236.363281 87.984375 234.210938 82.3125 C 232.644531 78.1875 231.839844 73.894531 231.726562 69.472656 C 231.582031 63.90625 231.625 58.328125 231.28125 52.773438 C 230.929688 47.195312 229.121094 42.054688 225.871094 37.4375 C 221.941406 31.851562 216.554688 28.417969 210.246094 26.285156 C 209.246094 25.945312 208.191406 25.703125 207.144531 25.558594 C 205.40625 25.320312 204.394531 24.375 204.253906 22.640625 C 203.980469 19.289062 203.933594 15.9375 204.328125 12.578125 C 204.542969 10.738281 205.859375 10.292969 207.34375 10.457031 C 215.21875 11.347656 222.300781 14.273438 228.691406 19.027344 C 235.878906 24.382812 240.734375 31.453125 243.832031 39.796875 C 245.3125 43.78125 246 47.964844 246.128906 52.253906 C 246.207031 54.785156 246.289062 57.316406 246.308594 60.351562 Z M 246.300781 60.355469 " fill-opacity="1" fill-rule="nonzero"/></g><g clip-path="url(#98dc09c510)"><path fill="#868686" d="M 120.398438 17.960938 C 120.316406 19.199219 120.496094 20.824219 120.179688 22.445312 C 119.808594 24.332031 119.03125 25.214844 117.152344 25.496094 C 113.019531 26.117188 109.3125 27.851562 105.917969 30.207031 C 100.542969 33.929688 96.78125 38.972656 94.761719 45.246094 C 93.601562 48.839844 92.871094 52.542969 92.839844 56.347656 C 92.808594 60.726562 92.777344 65.105469 92.839844 69.484375 C 92.882812 72.402344 92.328125 75.226562 91.679688 78.023438 C 90.679688 82.351562 88.863281 86.371094 86.578125 90.164062 C 84.042969 94.367188 80.828125 97.976562 77.074219 101.097656 C 76.796875 101.328125 76.542969 101.582031 76.285156 101.835938 C 74.835938 103.246094 74.910156 104.265625 76.464844 105.5625 C 83.410156 111.375 88.554688 118.472656 91.285156 127.214844 C 92.476562 131.03125 93.097656 134.957031 93.152344 138.996094 C 93.222656 144.34375 93.328125 149.703125 93.59375 155.039062 C 93.882812 160.886719 95.976562 166.234375 99.613281 170.902344 C 103.132812 175.417969 107.53125 178.667969 112.882812 180.578125 C 114.316406 181.089844 115.785156 181.511719 117.261719 181.867188 C 119.832031 182.480469 120.550781 183 120.691406 185.644531 C 120.851562 188.664062 121.074219 191.714844 120.480469 194.730469 C 120.171875 196.304688 119.589844 196.828125 118.011719 196.839844 C 115.429688 196.863281 112.917969 196.351562 110.449219 195.644531 C 105.796875 194.308594 101.507812 192.203125 97.535156 189.390625 C 91.9375 185.425781 87.457031 180.457031 84.117188 174.4375 C 81.824219 170.300781 80.28125 165.910156 79.429688 161.226562 C 78.707031 157.246094 78.699219 153.253906 78.695312 149.246094 C 78.6875 145.773438 78.765625 142.296875 78.433594 138.835938 C 77.675781 130.824219 74.605469 123.929688 68.542969 118.535156 C 64.691406 115.113281 60.265625 112.875 55.238281 111.839844 C 54.683594 111.722656 54.148438 111.515625 53.597656 111.386719 C 51.390625 110.882812 50.972656 109.125 50.90625 107.261719 C 50.796875 104.335938 50.617188 101.402344 51.066406 98.484375 C 51.316406 96.867188 52.148438 96.003906 53.75 95.933594 C 58.21875 95.738281 62.0625 93.863281 65.71875 91.488281 C 70.523438 88.371094 73.9375 84.03125 76.113281 78.753906 C 77.242188 76.019531 78.128906 73.179688 78.480469 70.1875 C 79.066406 65.210938 78.730469 60.21875 78.886719 55.238281 C 79 51.777344 79.070312 48.296875 79.863281 44.917969 C 81.171875 39.347656 83.394531 34.160156 86.609375 29.421875 C 92.011719 21.464844 99.339844 16.0625 108.253906 12.835938 C 111.085938 11.8125 114.011719 11.042969 117.070312 10.90625 C 119.488281 10.796875 120.253906 11.855469 120.386719 14.101562 C 120.453125 15.253906 120.398438 16.417969 120.398438 17.957031 Z M 120.398438 17.960938 " fill-opacity="1" fill-rule="nonzero"/></g><path fill="#4e5dc0" d="M 162.5 109.328125 C 162.5 86.023438 162.496094 62.714844 162.492188 39.410156 C 162.492188 38.867188 162.460938 38.324219 162.449219 37.78125 C 164.839844 36.605469 167.4375 36.070312 169.972656 35.351562 C 170.613281 35.171875 170.394531 35.742188 170.324219 36.050781 C 169.871094 38.015625 169.378906 39.96875 168.945312 41.941406 C 167.433594 48.828125 166.804688 55.808594 167.285156 62.835938 C 167.648438 68.121094 168.78125 73.257812 171.429688 77.9375 C 173.136719 80.949219 175.3125 83.511719 178.460938 85.03125 C 183.058594 87.257812 187.351562 86.441406 191.347656 83.484375 C 194.277344 81.316406 196.292969 78.394531 197.929688 75.171875 C 198.234375 74.566406 198.515625 73.945312 198.898438 73.152344 C 204.09375 80.050781 207.414062 87.609375 208.371094 96.097656 C 209.332031 104.644531 207.722656 112.769531 203.515625 120.542969 C 209.691406 120.863281 213.707031 117.339844 217.667969 113.144531 C 217.667969 115.265625 217.753906 117.136719 217.652344 118.992188 C 217.386719 123.835938 216.597656 128.59375 215.113281 133.222656 C 211.769531 143.632812 205.921875 152.359375 197.628906 159.359375 C 192.5625 163.632812 186.867188 166.855469 180.628906 169.0625 C 180.5 169.105469 180.355469 169.113281 180.214844 169.140625 C 179.976562 169.0625 179.777344 169.101562 179.671875 169.355469 C 179.222656 169.570312 178.761719 169.753906 178.253906 169.777344 C 178.058594 169.730469 177.882812 169.75 177.757812 169.9375 C 176.535156 170.367188 175.285156 170.703125 174.003906 170.886719 C 173.800781 170.820312 173.613281 170.816406 173.464844 171.007812 C 173.277344 171.035156 173.082031 171.058594 172.894531 171.082031 C 172.625 171.027344 172.359375 170.984375 172.167969 171.257812 C 171.980469 171.269531 171.789062 171.285156 171.601562 171.300781 C 171.328125 171.246094 171.058594 171.203125 170.875 171.496094 C 170.558594 171.511719 170.242188 171.527344 169.925781 171.546875 C 169.636719 171.472656 169.34375 171.378906 169.148438 171.71875 C 168.882812 171.863281 168.601562 171.871094 168.3125 171.824219 C 168.3125 171.71875 168.3125 171.613281 168.308594 171.507812 C 172.351562 170.449219 175.953125 168.542969 178.996094 165.648438 C 182.929688 161.90625 185.453125 157.367188 186.355469 151.945312 C 187.632812 144.261719 185.6875 137.472656 180.78125 131.511719 C 180.574219 131.261719 180.363281 131.011719 180.136719 130.785156 C 179.035156 129.683594 178.453125 129.664062 177.332031 130.765625 C 176.082031 131.988281 174.738281 132.964844 172.957031 133.277344 C 170.804688 133.652344 169.003906 132.933594 167.4375 131.582031 C 164.703125 129.214844 163.441406 126.046875 162.933594 122.53125 C 162.324219 118.3125 163.1875 114.378906 165.191406 110.664062 C 165.421875 110.238281 165.765625 109.757812 165.34375 109.269531 C 164.925781 108.785156 164.398438 108.890625 163.855469 109.050781 C 163.414062 109.183594 162.957031 109.242188 162.503906 109.332031 Z M 162.5 109.328125 " fill-opacity="1" fill-rule="nonzero"/><path fill="#fe6536" d="M 168.304688 171.507812 C 168.304688 171.613281 168.308594 171.71875 168.308594 171.824219 C 167.289062 172.003906 166.269531 172.183594 164.96875 172 C 166.277344 172.011719 167.277344 171.679688 168.304688 171.507812 Z M 168.304688 171.507812 " fill-opacity="1" fill-rule="nonzero"/><path fill="#fe6536" d="M 172.167969 171.253906 C 172.359375 170.984375 172.625 171.027344 172.894531 171.082031 C 172.695312 171.328125 172.449219 171.371094 172.167969 171.253906 Z M 172.167969 171.253906 " fill-opacity="1" fill-rule="nonzero"/><path fill="#fe6536" d="M 170.863281 171.496094 C 171.046875 171.203125 171.316406 171.246094 171.59375 171.300781 C 171.386719 171.507812 171.160156 171.636719 170.863281 171.496094 Z M 170.863281 171.496094 " fill-opacity="1" fill-rule="nonzero"/><path fill="#fe6536" d="M 169.136719 171.71875 C 169.335938 171.378906 169.628906 171.472656 169.917969 171.546875 C 169.6875 171.746094 169.433594 171.835938 169.136719 171.71875 Z M 169.136719 171.71875 " fill-opacity="1" fill-rule="nonzero"/><path fill="#fe6536" d="M 179.671875 169.355469 C 179.777344 169.097656 179.972656 169.0625 180.210938 169.136719 C 180.0625 169.289062 179.910156 169.425781 179.671875 169.355469 Z M 179.671875 169.355469 " fill-opacity="1" fill-rule="nonzero"/><path fill="#fe6536" d="M 177.753906 169.941406 C 177.878906 169.75 178.054688 169.730469 178.253906 169.777344 C 178.140625 169.996094 177.972656 170.042969 177.753906 169.941406 Z M 177.753906 169.941406 " fill-opacity="1" fill-rule="nonzero"/><path fill="#fe6536" d="M 173.464844 171.007812 C 173.609375 170.816406 173.796875 170.820312 174 170.886719 C 173.855469 171.082031 173.679688 171.117188 173.464844 171.007812 Z M 173.464844 171.007812 " fill-opacity="1" fill-rule="nonzero"/><g clip-path="url(#872cbc8d6c)"><path fill="#ffffff" d="M 342.359375 110.089844 C 335.152344 110.089844 328.980469 108.523438 323.84375 105.390625 C 318.707031 102.226562 314.753906 97.828125 311.984375 92.195312 C 309.25 86.5625 307.882812 80.03125 307.882812 72.597656 C 307.882812 65.164062 309.25 58.632812 311.984375 53 C 314.753906 47.367188 318.707031 42.984375 323.84375 39.851562 C 328.980469 36.6875 335.152344 35.105469 342.359375 35.105469 C 350.667969 35.105469 357.589844 37.1875 363.128906 41.351562 C 368.664062 45.484375 372.550781 51.066406 374.785156 58.101562 L 362.625 61.449219 C 361.226562 56.75 358.839844 53.085938 355.472656 50.453125 C 352.101562 47.785156 347.730469 46.453125 342.359375 46.453125 C 337.523438 46.453125 333.484375 47.535156 330.25 49.703125 C 327.046875 51.867188 324.628906 54.917969 322.992188 58.851562 C 321.390625 62.75 320.574219 67.332031 320.542969 72.597656 C 320.542969 77.863281 321.34375 82.460938 322.945312 86.394531 C 324.578125 90.292969 327.015625 93.328125 330.25 95.492188 C 333.484375 97.660156 337.523438 98.742188 342.359375 98.742188 C 347.730469 98.742188 352.101562 97.410156 355.472656 94.746094 C 358.839844 92.078125 361.226562 88.410156 362.625 83.746094 L 374.785156 87.09375 C 372.550781 94.128906 368.664062 99.726562 363.128906 103.894531 C 357.589844 108.023438 350.667969 110.089844 342.359375 110.089844 Z M 416.25 110.089844 C 409.042969 110.089844 402.871094 108.523438 397.734375 105.390625 C 392.597656 102.226562 388.644531 97.828125 385.875 92.195312 C 383.140625 86.5625 381.769531 80.03125 381.769531 72.597656 C 381.769531 65.164062 383.140625 58.632812 385.875 53 C 388.644531 47.367188 392.597656 42.984375 397.734375 39.851562 C 402.871094 36.6875 409.042969 35.105469 416.25 35.105469 C 423.457031 35.105469 429.628906 36.6875 434.765625 39.851562 C 439.9375 42.984375 443.890625 47.367188 446.625 53 C 449.394531 58.632812 450.78125 65.164062 450.78125 72.597656 C 450.78125 80.03125 449.394531 86.5625 446.625 92.195312 C 443.890625 97.828125 439.9375 102.226562 434.765625 105.390625 C 429.628906 108.523438 423.457031 110.089844 416.25 110.089844 Z M 416.25 98.742188 C 421.085938 98.777344 425.109375 97.710938 428.308594 95.542969 C 431.546875 93.378906 433.964844 90.328125 435.566406 86.394531 C 437.203125 82.460938 438.019531 77.863281 438.019531 72.597656 C 438.019531 67.332031 437.203125 62.765625 435.566406 58.898438 C 433.964844 55 431.546875 51.96875 428.308594 49.800781 C 425.109375 47.636719 421.085938 46.519531 416.25 46.453125 C 411.414062 46.417969 407.394531 47.484375 404.191406 49.652344 C 400.988281 51.816406 398.570312 54.867188 396.933594 58.800781 C 395.332031 62.734375 394.53125 67.332031 394.53125 72.597656 C 394.53125 77.863281 395.332031 82.445312 396.933594 86.34375 C 398.535156 90.210938 400.9375 93.226562 404.140625 95.394531 C 407.375 97.558594 411.414062 98.675781 416.25 98.742188 Z M 460.738281 108.59375 L 460.738281 36.605469 L 483.707031 36.605469 C 484.308594 36.605469 485.492188 36.621094 487.261719 36.652344 C 489.0625 36.6875 490.796875 36.804688 492.464844 37.003906 C 498.167969 37.738281 502.988281 39.769531 506.925781 43.101562 C 510.898438 46.402344 513.898438 50.617188 515.933594 55.75 C 517.96875 60.882812 518.988281 66.5 518.988281 72.597656 C 518.988281 78.695312 517.96875 84.3125 515.933594 89.445312 C 513.898438 94.578125 510.898438 98.808594 506.925781 102.144531 C 502.988281 105.441406 498.167969 107.457031 492.464844 108.191406 C 490.828125 108.390625 489.113281 108.507812 487.308594 108.542969 C 485.507812 108.574219 484.308594 108.59375 483.707031 108.59375 Z M 473 97.242188 L 483.707031 97.242188 C 484.707031 97.242188 485.976562 97.210938 487.511719 97.144531 C 489.078125 97.078125 490.464844 96.925781 491.664062 96.695312 C 495.066406 96.0625 497.835938 94.542969 499.972656 92.144531 C 502.105469 89.746094 503.675781 86.828125 504.675781 83.394531 C 505.710938 79.964844 506.226562 76.363281 506.226562 72.597656 C 506.226562 68.699219 505.710938 65.03125 504.675781 61.597656 C 503.640625 58.167969 502.039062 55.285156 499.871094 52.949219 C 497.734375 50.617188 495 49.136719 491.664062 48.5 C 490.464844 48.234375 489.078125 48.085938 487.511719 48.050781 C 485.976562 47.984375 484.707031 47.953125 483.707031 47.953125 L 473 47.953125 Z M 530.816406 108.59375 L 530.816406 36.605469 L 577.355469 36.605469 L 577.355469 47.902344 L 542.878906 47.902344 L 542.878906 65.648438 L 571.351562 65.648438 L 571.351562 76.945312 L 542.878906 76.945312 L 542.878906 97.292969 L 577.355469 97.292969 L 577.355469 108.59375 Z M 530.816406 108.59375 " fill-opacity="1" fill-rule="nonzero"/></g><path fill="#6674cc" d="M 609.398438 108.59375 L 609.398438 36.605469 L 623.011719 36.605469 L 623.011719 66.199219 L 655.238281 66.199219 L 655.238281 36.605469 L 668.847656 36.605469 L 668.847656 108.59375 L 655.238281 108.59375 L 655.238281 78.898438 L 623.011719 78.898438 L 623.011719 108.59375 Z M 682.898438 108.59375 L 682.898438 36.605469 L 729.9375 36.605469 L 729.9375 49.300781 L 696.511719 49.300781 L 696.511719 64.699219 L 723.933594 64.699219 L 723.933594 77.398438 L 696.511719 77.398438 L 696.511719 95.894531 L 729.9375 95.894531 L 729.9375 108.59375 Z M 742.933594 108.59375 L 742.933594 36.605469 L 756.542969 36.605469 L 756.542969 95.894531 L 787.570312 95.894531 L 787.570312 108.59375 Z M 796.078125 108.59375 L 796.078125 36.605469 L 826.503906 36.605469 C 827.203125 36.605469 828.136719 36.636719 829.304688 36.703125 C 830.503906 36.738281 831.574219 36.835938 832.507812 37.003906 C 836.8125 37.671875 840.332031 39.085938 843.066406 41.253906 C 845.835938 43.417969 847.871094 46.152344 849.171875 49.453125 C 850.472656 52.71875 851.121094 56.367188 851.121094 60.398438 C 851.121094 64.433594 850.457031 68.097656 849.121094 71.398438 C 847.820312 74.664062 845.785156 77.378906 843.015625 79.546875 C 840.28125 81.714844 836.777344 83.128906 832.507812 83.796875 C 831.574219 83.929688 830.503906 84.027344 829.304688 84.097656 C 828.105469 84.164062 827.167969 84.195312 826.503906 84.195312 L 809.6875 84.195312 L 809.6875 108.59375 Z M 809.6875 71.496094 L 825.902344 71.496094 C 826.601562 71.496094 827.371094 71.464844 828.203125 71.398438 C 829.039062 71.332031 829.804688 71.199219 830.503906 70.996094 C 832.339844 70.5 833.757812 69.664062 834.757812 68.5 C 835.761719 67.296875 836.445312 65.980469 836.8125 64.550781 C 837.210938 63.082031 837.410156 61.699219 837.410156 60.398438 C 837.410156 59.101562 837.210938 57.734375 836.8125 56.300781 C 836.445312 54.832031 835.761719 53.515625 834.757812 52.351562 C 833.757812 51.152344 832.339844 50.300781 830.503906 49.800781 C 829.804688 49.601562 829.039062 49.46875 828.203125 49.402344 C 827.371094 49.335938 826.601562 49.300781 825.902344 49.300781 L 809.6875 49.300781 Z M 809.6875 71.496094 " fill-opacity="1" fill-rule="nonzero"/><g fill="#ffffff" fill-opacity="1"><g transform="translate(400.769218, 187.768666)"><g><path d="M 4.265625 -33.796875 L 43.1875 -49.578125 L 43.1875 -39.484375 L 17.71875 -29.515625 L 43.1875 -19.703125 L 43.1875 -9.609375 L 4.265625 -25.390625 Z M 4.265625 -33.796875 "/></g></g></g><g fill="#ffffff" fill-opacity="1"><g transform="translate(453.547971, 187.768666)"><g><path d="M 17.640625 -58.6875 L 17.640625 -11.734375 L 37.84375 -11.734375 L 37.84375 0 L 4.265625 0 L 4.265625 -58.6875 Z M 17.640625 -58.6875 "/></g></g></g><g fill="#ffffff" fill-opacity="1"><g transform="translate(499.427211, 187.768666)"><g><path d="M 34.078125 -58.6875 L 57.765625 0 L 43.390625 0 L 39.0625 -11.734375 L 16.71875 -11.734375 L 12.375 0 L -1.984375 0 L 21.703125 -58.6875 Z M 34.5 -23.46875 L 27.953125 -40.546875 L 27.8125 -40.546875 L 21.265625 -23.46875 Z M 34.5 -23.46875 "/></g></g></g><g fill="#ffffff" fill-opacity="1"><g transform="translate(560.883713, 187.768666)"><g><path d="M 4.265625 -58.6875 L 22.484375 -58.6875 C 27.984375 -58.6875 32.367188 -57.507812 35.640625 -55.15625 C 38.910156 -52.8125 40.546875 -49.007812 40.546875 -43.75 C 40.546875 -37.875 38.101562 -33.675781 33.21875 -31.15625 C 41.570312 -29.6875 45.75 -24.753906 45.75 -16.359375 C 45.75 -11.429688 44.039062 -7.472656 40.625 -4.484375 C 37.207031 -1.492188 32.507812 0 26.53125 0 L 4.265625 0 Z M 17.640625 -35.71875 L 18.703125 -35.71875 C 21.691406 -35.71875 23.921875 -36.238281 25.390625 -37.28125 C 26.867188 -38.320312 27.609375 -40.03125 27.609375 -42.40625 C 27.609375 -46.382812 24.640625 -48.375 18.703125 -48.375 L 17.640625 -48.375 Z M 17.640625 -10.3125 L 21.84375 -10.3125 C 28.382812 -10.3125 31.65625 -12.492188 31.65625 -16.859375 C 31.65625 -19.460938 30.835938 -21.332031 29.203125 -22.46875 C 27.566406 -23.613281 25.113281 -24.1875 21.84375 -24.1875 L 17.640625 -24.1875 Z M 17.640625 -10.3125 "/></g></g></g><g fill="#ffffff" fill-opacity="1"><g transform="translate(613.946992, 187.768666)"><g><path d="M 25.890625 -59.765625 C 29.066406 -59.765625 32.171875 -59.300781 35.203125 -58.375 C 38.242188 -57.445312 40.5 -56.53125 41.96875 -55.625 L 44.109375 -54.203125 L 38.703125 -43.53125 C 38.273438 -43.820312 37.679688 -44.191406 36.921875 -44.640625 C 36.160156 -45.085938 34.734375 -45.691406 32.640625 -46.453125 C 30.554688 -47.210938 28.613281 -47.59375 26.8125 -47.59375 C 24.582031 -47.59375 22.863281 -47.117188 21.65625 -46.171875 C 20.445312 -45.222656 19.84375 -43.941406 19.84375 -42.328125 C 19.84375 -41.523438 20.128906 -40.78125 20.703125 -40.09375 C 21.273438 -39.40625 22.25 -38.664062 23.625 -37.875 C 25 -37.09375 26.207031 -36.460938 27.25 -35.984375 C 28.289062 -35.515625 29.898438 -34.804688 32.078125 -33.859375 C 35.878906 -32.242188 39.117188 -30.050781 41.796875 -27.28125 C 44.472656 -24.507812 45.8125 -21.367188 45.8125 -17.859375 C 45.8125 -14.492188 45.207031 -11.550781 44 -9.03125 C 42.789062 -6.519531 41.128906 -4.550781 39.015625 -3.125 C 36.910156 -1.707031 34.578125 -0.65625 32.015625 0.03125 C 29.453125 0.71875 26.675781 1.0625 23.6875 1.0625 C 21.125 1.0625 18.609375 0.800781 16.140625 0.28125 C 13.679688 -0.238281 11.617188 -0.890625 9.953125 -1.671875 C 8.296875 -2.453125 6.800781 -3.222656 5.46875 -3.984375 C 4.144531 -4.742188 3.175781 -5.382812 2.5625 -5.90625 L 1.640625 -6.6875 L 8.328125 -17.921875 C 8.890625 -17.453125 9.671875 -16.847656 10.671875 -16.109375 C 11.671875 -15.378906 13.4375 -14.394531 15.96875 -13.15625 C 18.507812 -11.925781 20.75 -11.3125 22.6875 -11.3125 C 28.332031 -11.3125 31.15625 -13.234375 31.15625 -17.078125 C 31.15625 -17.878906 30.953125 -18.625 30.546875 -19.3125 C 30.148438 -20 29.441406 -20.6875 28.421875 -21.375 C 27.398438 -22.0625 26.5 -22.609375 25.71875 -23.015625 C 24.9375 -23.421875 23.65625 -24.035156 21.875 -24.859375 C 20.09375 -25.691406 18.773438 -26.320312 17.921875 -26.75 C 14.367188 -28.5 11.617188 -30.691406 9.671875 -33.328125 C 7.734375 -35.960938 6.765625 -38.796875 6.765625 -41.828125 C 6.765625 -47.097656 8.707031 -51.40625 12.59375 -54.75 C 16.476562 -58.09375 20.910156 -59.765625 25.890625 -59.765625 Z M 25.890625 -59.765625 "/></g></g></g><g fill="#ffffff" fill-opacity="1"><g transform="translate(667.437043, 187.768666)"><g><path d="M 41.828125 -61.1875 L 12.515625 8.53125 L 1.640625 8.53125 L 30.953125 -61.1875 Z M 41.828125 -61.1875 "/></g></g></g><g fill="#ffffff" fill-opacity="1"><g transform="translate(716.588222, 187.768666)"><g><path d="M 3.90625 -19.703125 L 29.375 -29.515625 L 3.90625 -39.484375 L 3.90625 -49.578125 L 42.828125 -33.796875 L 42.828125 -25.390625 L 3.90625 -9.609375 Z M 3.90625 -19.703125 "/></g></g></g></svg>