<svg width="133" height="31" viewBox="0 0 133 31" fill="none" xmlns="http://www.w3.org/2000/svg">
<path d="M44.5726 21.2029C43.4206 21.2029 42.4339 20.9522 41.6126 20.4509C40.7912 19.9442 40.1592 19.2402 39.7166 18.3389C39.2792 17.4376 39.0606 16.3922 39.0606 15.2029C39.0606 14.0136 39.2792 12.9682 39.7166 12.0669C40.1592 11.1656 40.7912 10.4642 41.6126 9.96289C42.4339 9.45622 43.4206 9.20289 44.5726 9.20289C45.9006 9.20289 47.0072 9.53622 47.8926 10.2029C48.7779 10.8642 49.3992 11.7576 49.7566 12.8829L47.8126 13.4189C47.5886 12.6669 47.2072 12.0802 46.6686 11.6589C46.1299 11.2322 45.4312 11.0189 44.5726 11.0189C43.7992 11.0189 43.1539 11.1922 42.6366 11.5389C42.1246 11.8856 41.7379 12.3736 41.4766 13.0029C41.2206 13.6269 41.0899 14.3602 41.0846 15.2029C41.0846 16.0456 41.2126 16.7816 41.4686 17.4109C41.7299 18.0349 42.1192 18.5202 42.6366 18.8669C43.1539 19.2136 43.7992 19.3869 44.5726 19.3869C45.4312 19.3869 46.1299 19.1736 46.6686 18.7469C47.2072 18.3202 47.5886 17.7336 47.8126 16.9869L49.7566 17.5229C49.3992 18.6482 48.7779 19.5442 47.8926 20.2109C47.0072 20.8722 45.9006 21.2029 44.5726 21.2029ZM56.3851 21.2029C55.2331 21.2029 54.2464 20.9522 53.4251 20.4509C52.6037 19.9442 51.9717 19.2402 51.5291 18.3389C51.0917 17.4376 50.8731 16.3922 50.8731 15.2029C50.8731 14.0136 51.0917 12.9682 51.5291 12.0669C51.9717 11.1656 52.6037 10.4642 53.4251 9.96289C54.2464 9.45622 55.2331 9.20289 56.3851 9.20289C57.5371 9.20289 58.5237 9.45622 59.3451 9.96289C60.1717 10.4642 60.8037 11.1656 61.2411 12.0669C61.6837 12.9682 61.9051 14.0136 61.9051 15.2029C61.9051 16.3922 61.6837 17.4376 61.2411 18.3389C60.8037 19.2402 60.1717 19.9442 59.3451 20.4509C58.5237 20.9522 57.5371 21.2029 56.3851 21.2029ZM56.3851 19.3869C57.1584 19.3922 57.8011 19.2216 58.3131 18.8749C58.8304 18.5282 59.2171 18.0402 59.4731 17.4109C59.7344 16.7816 59.8651 16.0456 59.8651 15.2029C59.8651 14.3602 59.7344 13.6296 59.4731 13.0109C59.2171 12.3869 58.8304 11.9016 58.3131 11.5549C57.8011 11.2082 57.1584 11.0296 56.3851 11.0189C55.6117 11.0136 54.9691 11.1842 54.4571 11.5309C53.9451 11.8776 53.5584 12.3656 53.2971 12.9949C53.0411 13.6242 52.9131 14.3602 52.9131 15.2029C52.9131 16.0456 53.0411 16.7789 53.2971 17.4029C53.5531 18.0216 53.9371 18.5042 54.4491 18.8509C54.9664 19.1976 55.6117 19.3762 56.3851 19.3869ZM63.4974 20.9629V9.44289H67.1694C67.2654 9.44289 67.4548 9.44556 67.7374 9.45089C68.0254 9.45622 68.3028 9.47489 68.5694 9.50689C69.4814 9.62422 70.2521 9.94956 70.8814 10.4829C71.5161 11.0109 71.9961 11.6856 72.3214 12.5069C72.6468 13.3282 72.8094 14.2269 72.8094 15.2029C72.8094 16.1789 72.6468 17.0776 72.3214 17.8989C71.9961 18.7202 71.5161 19.3976 70.8814 19.9309C70.2521 20.4589 69.4814 20.7816 68.5694 20.8989C68.3081 20.9309 68.0334 20.9496 67.7454 20.9549C67.4574 20.9602 67.2654 20.9629 67.1694 20.9629H63.4974ZM65.4574 19.1469H67.1694C67.3294 19.1469 67.5321 19.1416 67.7774 19.1309C68.0281 19.1202 68.2494 19.0962 68.4414 19.0589C68.9854 18.9576 69.4281 18.7149 69.7694 18.3309C70.1108 17.9469 70.3614 17.4802 70.5214 16.9309C70.6868 16.3816 70.7694 15.8056 70.7694 15.2029C70.7694 14.5789 70.6868 13.9922 70.5214 13.4429C70.3561 12.8936 70.1001 12.4322 69.7534 12.0589C69.4121 11.6856 68.9748 11.4482 68.4414 11.3469C68.2494 11.3042 68.0281 11.2802 67.7774 11.2749C67.5321 11.2642 67.3294 11.2589 67.1694 11.2589H65.4574V19.1469ZM74.7006 20.9629V9.44289H82.1406V11.2509H76.6286V14.0909H81.1806V15.8989H76.6286V19.1549H82.1406V20.9629H74.7006ZM87.2631 20.9629V9.44289H89.4391V14.1789H94.5911V9.44289H96.7671V20.9629H94.5911V16.2109H89.4391V20.9629H87.2631ZM99.0131 20.9629V9.44289H106.533V11.4749H101.189V13.9389H105.573V15.9709H101.189V18.9309H106.533V20.9629H99.0131ZM108.611 20.9629V9.44289H110.787V18.9309H115.747V20.9629H108.611ZM117.107 20.9629V9.44289H121.971C122.083 9.44289 122.232 9.44822 122.419 9.45889C122.611 9.46422 122.781 9.48022 122.931 9.50689C123.619 9.61356 124.181 9.84022 124.619 10.1869C125.061 10.5336 125.387 10.9709 125.595 11.4989C125.803 12.0216 125.907 12.6056 125.907 13.2509C125.907 13.8962 125.8 14.4829 125.587 15.0109C125.379 15.5336 125.053 15.9682 124.611 16.3149C124.173 16.6616 123.613 16.8882 122.931 16.9949C122.781 17.0162 122.611 17.0322 122.419 17.0429C122.227 17.0536 122.077 17.0589 121.971 17.0589H119.283V20.9629H117.107ZM119.283 15.0269H121.875C121.987 15.0269 122.109 15.0216 122.243 15.0109C122.376 15.0002 122.499 14.9789 122.611 14.9469C122.904 14.8669 123.131 14.7336 123.291 14.5469C123.451 14.3549 123.56 14.1442 123.619 13.9149C123.683 13.6802 123.715 13.4589 123.715 13.2509C123.715 13.0429 123.683 12.8242 123.619 12.5949C123.56 12.3602 123.451 12.1496 123.291 11.9629C123.131 11.7709 122.904 11.6349 122.611 11.5549C122.499 11.5229 122.376 11.5016 122.243 11.4909C122.109 11.4802 121.987 11.4749 121.875 11.4749H119.283V15.0269Z" fill="white"/>
<path d="M19.5282 15.8674C19.0324 16.0467 18.5617 16.2751 18.1469 16.6075C17.2946 17.2905 16.7776 18.1843 16.5377 19.2502C16.4146 19.7973 16.3607 20.3519 16.371 20.9124C16.3981 22.3757 17.3876 23.606 18.7622 23.953C18.814 23.9661 18.8652 23.9816 18.9152 24.0001C14.7571 23.7082 11.4124 19.5144 12.5915 14.9316C13.1871 15.6973 13.8992 16.31 14.7238 16.8086C14.7512 16.7377 14.7247 16.679 14.7212 16.6218C14.6691 15.8361 14.6747 15.0516 14.7397 14.266C14.8098 13.4195 14.9385 12.5847 15.1649 11.7668C15.5299 10.4486 16.1028 9.24149 17.0334 8.22885C17.7035 7.49975 18.5043 6.96305 19.4145 6.59076C19.4487 6.57676 19.4858 6.56902 19.5214 6.55859C19.5235 6.62918 19.527 6.69977 19.527 6.77035C19.5276 9.80261 19.5279 12.8352 19.5282 15.8674V15.8674Z" fill="white"/>
<path d="M30.4234 9.4961C30.4113 9.80704 30.4184 10.1847 30.4466 10.5597C30.5014 11.2864 30.7245 11.9547 31.1429 12.5581C31.5583 13.1574 32.1032 13.5818 32.7612 13.8689C33.0468 13.9934 33.3456 14.0735 33.6518 14.1185C33.857 14.1486 34.0003 14.3046 33.9983 14.5003C33.9939 14.9051 34.0074 15.3101 33.993 15.7152C33.9853 15.9237 33.8914 16.0499 33.695 16.1003C33.2252 16.2206 32.7586 16.3457 32.3326 16.5947C31.6834 16.9747 31.1885 17.4989 30.8438 18.1711C30.6177 18.6116 30.5031 19.0813 30.4351 19.5727C30.3677 20.0576 30.3983 20.5404 30.3963 21.0235C30.3945 21.4619 30.386 21.9009 30.3344 22.334C30.2426 23.1033 29.9906 23.8216 29.5887 24.4861C28.858 25.6944 27.8338 26.5328 26.5125 26.9966C26.1722 27.116 25.8192 27.1893 25.4603 27.2304C25.133 27.2679 24.9796 27.1318 24.9787 26.7961C24.9781 26.4947 24.9787 26.1933 24.9805 25.8919C24.981 25.7638 25.0037 25.6366 25.065 25.5267C25.148 25.3784 25.3099 25.3477 25.4571 25.3123C26.7887 24.9921 27.7384 24.2133 28.2483 22.9189C28.4641 22.3712 28.5577 21.7946 28.5604 21.2034C28.5633 20.5678 28.5654 19.9319 28.5772 19.2963C28.5836 18.9529 28.6787 18.622 28.7682 18.2941C28.9169 17.7494 29.1657 17.2484 29.4674 16.7737C29.7565 16.3192 30.1122 15.9252 30.5149 15.5725C30.5923 15.5049 30.6695 15.4364 30.7416 15.3634C30.8885 15.2145 30.8909 15.1025 30.7345 14.9545C30.514 14.7457 30.2797 14.5524 30.0689 14.332C29.5219 13.7605 29.1312 13.091 28.8513 12.3532C28.6475 11.8162 28.5427 11.2578 28.528 10.6827C28.5095 9.95834 28.515 9.23252 28.47 8.50997C28.4247 7.78385 28.1894 7.11521 27.767 6.51448C27.2556 5.78746 26.5555 5.34071 25.7353 5.06343C25.6049 5.01935 25.468 4.98748 25.3317 4.96872C25.1059 4.93774 24.974 4.81504 24.9557 4.58928C24.9204 4.15295 24.9145 3.71692 24.9654 3.28C24.9934 3.04083 25.1648 2.98246 25.3576 3.0042C26.3818 3.11976 27.3024 3.50039 28.1335 4.11929C29.0682 4.81563 29.6994 5.73564 30.1022 6.82125C30.2944 7.33978 30.3842 7.88392 30.401 8.44206C30.411 8.77147 30.4219 9.10058 30.4239 9.4958L30.4234 9.4961Z" fill="white"/>
<path d="M14.0525 3.97993C14.0422 4.14136 14.0654 4.35252 14.0242 4.56369C13.9762 4.8091 13.8747 4.92377 13.6306 4.9604C13.093 5.04141 12.6111 5.26717 12.1698 5.57335C11.4709 6.05792 10.9816 6.71375 10.719 7.53012C10.5685 7.99772 10.4732 8.47961 10.4693 8.97432C10.4652 9.54407 10.4611 10.1141 10.4693 10.6839C10.4749 11.0633 10.4025 11.4309 10.3186 11.7948C10.1882 12.358 9.95207 12.8807 9.65502 13.3742C9.32558 13.9213 8.90753 14.3907 8.41912 14.797C8.3832 14.8268 8.35023 14.8601 8.31666 14.8929C8.12854 15.0764 8.13796 15.2089 8.33992 15.3781C9.24315 16.134 9.91203 17.0575 10.2671 18.195C10.4219 18.6915 10.5029 19.2023 10.51 19.7276C10.5191 20.4237 10.5329 21.1209 10.5674 21.8152C10.6051 22.5761 10.8771 23.2719 11.3502 23.8791C11.8077 24.4665 12.3794 24.8897 13.0757 25.1381C13.2617 25.2045 13.4528 25.2596 13.6447 25.3055C13.9792 25.3853 14.0725 25.4529 14.0908 25.7972C14.1117 26.19 14.1405 26.5871 14.0634 26.9793C14.0231 27.1842 13.9477 27.2521 13.7422 27.2539C13.4066 27.2569 13.0798 27.1902 12.7592 27.0981C12.1539 26.9245 11.5963 26.6505 11.0799 26.2845C10.3519 25.7686 9.76954 25.1223 9.3353 24.339C9.03677 23.8008 8.83628 23.2296 8.72559 22.6202C8.63167 22.1023 8.63079 21.5828 8.62991 21.0616C8.62902 20.6098 8.63903 20.1571 8.59635 19.7071C8.49772 18.6644 8.09851 17.7676 7.3101 17.0659C6.80933 16.6203 6.23377 16.3293 5.5802 16.1944C5.50807 16.1795 5.43859 16.1521 5.36676 16.1357C5.07972 16.0699 5.02555 15.8415 5.01671 15.5988C5.00258 15.2184 4.97933 14.8363 5.03762 14.4572C5.07 14.2466 5.17834 14.1343 5.38648 14.1251C5.96763 14.0995 6.46753 13.8555 6.94299 13.5467C7.56741 13.141 8.01137 12.5766 8.29458 11.8898C8.4412 11.5342 8.5566 11.1646 8.60223 10.775C8.67819 10.1275 8.63462 9.47825 8.65523 8.83017C8.66965 8.38014 8.67878 7.92713 8.78182 7.48723C8.95198 6.7626 9.24109 6.088 9.65943 5.47119C10.3616 4.43592 11.3146 3.73332 12.4736 3.31338C12.8419 3.17995 13.2223 3.07987 13.6197 3.062C13.9344 3.04801 14.0339 3.18561 14.051 3.47778C14.0599 3.62789 14.0525 3.77919 14.0525 3.97933V3.97993Z" fill="white"/>
<path d="M19.5273 15.8679C19.527 12.8357 19.5267 9.80311 19.5261 6.77086C19.5261 6.70027 19.5223 6.62968 19.5205 6.5591C19.8314 6.40571 20.1691 6.33632 20.4988 6.2428C20.5821 6.21927 20.5536 6.29343 20.5444 6.33363C20.4856 6.58918 20.4214 6.84353 20.3651 7.09996C20.1688 7.99615 20.0866 8.90424 20.1493 9.81889C20.1965 10.5063 20.3439 11.1749 20.6884 11.7837C20.9101 12.1757 21.1933 12.5086 21.6025 12.7067C22.2002 12.9962 22.7583 12.8902 23.2783 12.5051C23.6589 12.2233 23.9212 11.8433 24.1338 11.4239C24.1738 11.345 24.2103 11.2643 24.2598 11.1609C24.9357 12.0583 25.3673 13.0418 25.4916 14.1461C25.6167 15.2585 25.4071 16.3156 24.8604 17.3267C25.6632 17.3687 26.1855 16.91 26.7004 16.3641C26.7004 16.6405 26.7116 16.8835 26.6983 17.1251C26.6639 17.7553 26.5614 18.3745 26.3683 18.9764C25.9335 20.3313 25.1733 21.4666 24.0946 22.3774C23.4363 22.9331 22.6956 23.3525 21.8846 23.6396C21.8675 23.6456 21.8486 23.6465 21.8304 23.6497C21.7995 23.6399 21.7739 23.6447 21.76 23.678C21.7014 23.7057 21.6417 23.7299 21.5757 23.7325C21.5501 23.7266 21.5272 23.729 21.5113 23.7537C21.352 23.8094 21.1898 23.8532 21.0228 23.8773C20.9963 23.8686 20.9719 23.868 20.9531 23.8931C20.9283 23.8963 20.9033 23.8993 20.8786 23.9026C20.8438 23.8954 20.8094 23.8898 20.7844 23.9252C20.7599 23.927 20.7352 23.9291 20.7105 23.9309C20.6749 23.9237 20.6398 23.9184 20.616 23.9562C20.5748 23.9583 20.5338 23.9607 20.4926 23.9628C20.4552 23.9532 20.417 23.941 20.3913 23.9851C20.3572 24.0039 20.3204 24.005 20.283 23.9991C20.283 23.9854 20.2827 23.9717 20.2824 23.958C20.8079 23.8201 21.2763 23.5723 21.672 23.1955C22.1834 22.7086 22.5119 22.118 22.6288 21.4127C22.7948 20.4129 22.5422 19.5298 21.9043 18.7539C21.8775 18.7215 21.8501 18.689 21.8204 18.6595C21.677 18.5163 21.6013 18.5136 21.4556 18.6568C21.2934 18.8162 21.1185 18.9431 20.8868 18.9836C20.6071 19.0327 20.3728 18.9392 20.1694 18.7632C19.8134 18.4552 19.6495 18.043 19.5835 17.5855C19.5043 17.0369 19.6165 16.5249 19.8773 16.0416C19.9071 15.9862 19.9515 15.9236 19.8968 15.8599C19.8426 15.797 19.774 15.8107 19.7033 15.8319C19.6462 15.8489 19.5865 15.8566 19.5279 15.8682L19.5273 15.8679Z" fill="white"/>
<path d="M20.2828 23.9575C20.2828 23.9712 20.2831 23.985 20.2833 23.9987C20.1507 24.0222 20.0177 24.0458 19.8481 24.022C20.0186 24.0231 20.1489 23.9802 20.2828 23.9575Z" fill="white"/>
<path d="M20.7837 23.9252C20.8087 23.8901 20.8429 23.8957 20.878 23.9026C20.8524 23.9344 20.8205 23.9401 20.7837 23.9252Z" fill="white"/>
<path d="M20.6143 23.9566C20.6381 23.9189 20.6732 23.9242 20.7089 23.9314C20.6823 23.9584 20.6529 23.9751 20.6143 23.9566Z" fill="white"/>
<path d="M20.3896 23.985C20.4156 23.941 20.4536 23.9532 20.491 23.9627C20.4613 23.9889 20.4283 24.0005 20.3896 23.985Z" fill="white"/>
<path d="M21.7603 23.6779C21.7741 23.6442 21.7993 23.6398 21.8304 23.6496C21.811 23.6692 21.7911 23.6871 21.7603 23.6779Z" fill="white"/>
<path d="M21.5107 23.7541C21.5265 23.7296 21.5493 23.7273 21.5747 23.7332C21.5601 23.7612 21.5385 23.7671 21.5107 23.7541Z" fill="white"/>
<path d="M20.9531 23.8927C20.9719 23.8678 20.9963 23.8683 21.0227 23.877C21.0039 23.9023 20.9807 23.907 20.9531 23.8927Z" fill="white"/>
</svg>
