<svg width="18" height="18" viewBox="0 0 18 18" fill="none" xmlns="http://www.w3.org/2000/svg">
<g clip-path="url(#clip0_202_1487)">
<path d="M14.25 13.5H3.75C3.33579 13.5 3 13.8358 3 14.25C3 14.6642 3.33579 15 3.75 15H14.25C14.6642 15 15 14.6642 15 14.25C15 13.8358 14.6642 13.5 14.25 13.5Z" fill="#64748B"/>
<path d="M3 12.75V14.25C3 14.6642 3.33579 15 3.75 15C4.16421 15 4.5 14.6642 4.5 14.25V12.75C4.5 12.3358 4.16421 12 3.75 12C3.33579 12 3 12.3358 3 12.75Z" fill="#64748B"/>
<path d="M13.5 12.75V14.25C13.5 14.6642 13.8358 15 14.25 15C14.6642 15 15 14.6642 15 14.25V12.75C15 12.3358 14.6642 12 14.25 12C13.8358 12 13.5 12.3358 13.5 12.75Z" fill="#64748B"/>
<path d="M8.99996 11.25C8.84447 11.2512 8.69246 11.204 8.56496 11.115L5.56496 9C5.40327 8.8853 5.29357 8.71125 5.25984 8.5159C5.22611 8.32054 5.2711 8.11978 5.38496 7.9575C5.4418 7.87639 5.51415 7.80734 5.59782 7.75433C5.68149 7.70133 5.77483 7.66542 5.87245 7.64869C5.97007 7.63195 6.07005 7.63472 6.16659 7.65683C6.26314 7.67894 6.35435 7.71995 6.43496 7.7775L8.99996 9.57L11.55 7.65C11.7091 7.53066 11.9091 7.47941 12.106 7.50754C12.3029 7.53567 12.4806 7.64087 12.6 7.8C12.7193 7.95913 12.7706 8.15916 12.7424 8.35607C12.7143 8.55298 12.6091 8.73066 12.45 8.85L9.44996 11.1C9.32014 11.1974 9.16224 11.25 8.99996 11.25V11.25Z" fill="#64748B"/>
<path d="M9 9.75C8.80109 9.75 8.61032 9.67098 8.46967 9.53033C8.32902 9.38968 8.25 9.19891 8.25 9V3C8.25 2.80109 8.32902 2.61032 8.46967 2.46967C8.61032 2.32902 8.80109 2.25 9 2.25C9.19891 2.25 9.38968 2.32902 9.53033 2.46967C9.67098 2.61032 9.75 2.80109 9.75 3V9C9.75 9.19891 9.67098 9.38968 9.53033 9.53033C9.38968 9.67098 9.19891 9.75 9 9.75Z" fill="#64748B"/>
</g>
<defs>
<clipPath id="clip0_202_1487">
<rect width="18" height="18" fill="white"/>
</clipPath>
</defs>
</svg>
