<svg width="20" height="20" viewBox="0 0 20 20" fill="none" xmlns="http://www.w3.org/2000/svg">
<path d="M9.99991 12.9167C9.89024 12.9174 9.78152 12.8964 9.67999 12.8549C9.57846 12.8134 9.48611 12.7523 9.40824 12.6751L6.07491 9.34174C5.99721 9.26404 5.93558 9.1718 5.89353 9.07028C5.85148 8.96876 5.82983 8.85996 5.82983 8.75007C5.82983 8.64019 5.85148 8.53138 5.89353 8.42986C5.93558 8.32835 5.99721 8.2361 6.07491 8.15841C6.15261 8.08071 6.24485 8.01907 6.34637 7.97702C6.44789 7.93497 6.55669 7.91333 6.66658 7.91333C6.77646 7.91333 6.88527 7.93497 6.98679 7.97702C7.0883 8.01907 7.18054 8.08071 7.25824 8.15841L9.99991 10.9167L12.7499 8.26674C12.8266 8.1815 12.92 8.11299 13.0243 8.0655C13.1287 8.01801 13.2417 7.99257 13.3563 7.99075C13.471 7.98893 13.5847 8.01079 13.6905 8.05495C13.7963 8.09911 13.8919 8.16462 13.9712 8.24739C14.0505 8.33016 14.1119 8.42841 14.1515 8.53599C14.1911 8.64356 14.2081 8.75816 14.2014 8.87261C14.1948 8.98705 14.1645 9.09889 14.1126 9.20112C14.0608 9.30335 13.9883 9.39377 13.8999 9.46674L10.5666 12.6834C10.4142 12.8303 10.2116 12.9138 9.99991 12.9167Z" fill="#CFD8E3"/>
</svg>
