<svg width="18" height="18" viewBox="0 0 18 18" fill="none" xmlns="http://www.w3.org/2000/svg">
<g clip-path="url(#clip0_202_1448)">
<path d="M14.805 6.24751L10.725 1.74751C10.6549 1.66982 10.5693 1.60766 10.4737 1.56503C10.3781 1.52241 10.2747 1.50026 10.17 1.50001H4.92C4.67081 1.49704 4.42348 1.54318 4.19213 1.63581C3.96077 1.72843 3.74993 1.86572 3.57164 2.03983C3.39334 2.21394 3.2511 2.42147 3.15301 2.65056C3.05493 2.87966 3.00294 3.12582 3 3.37501V14.625C3.00294 14.8742 3.05493 15.1204 3.15301 15.3495C3.2511 15.5786 3.39334 15.7861 3.57164 15.9602C3.74993 16.1343 3.96077 16.2716 4.19213 16.3642C4.42348 16.4568 4.67081 16.503 4.92 16.5H13.08C13.3292 16.503 13.5765 16.4568 13.8079 16.3642C14.0392 16.2716 14.2501 16.1343 14.4284 15.9602C14.6067 15.7861 14.7489 15.5786 14.847 15.3495C14.9451 15.1204 14.9971 14.8742 15 14.625V6.75001C14.9995 6.56414 14.93 6.38506 14.805 6.24751V6.24751ZM10.5 3.75001L12.555 6.00001H11.055C10.9765 5.99527 10.8997 5.97493 10.8291 5.94019C10.7585 5.90544 10.6955 5.85698 10.6438 5.79764C10.5922 5.73829 10.5528 5.66925 10.5281 5.59454C10.5034 5.51984 10.4939 5.44096 10.5 5.36251V3.75001ZM13.08 15H4.92C4.86778 15.0031 4.81547 14.9958 4.76608 14.9785C4.71669 14.9613 4.67118 14.9345 4.63216 14.8997C4.59314 14.8649 4.56138 14.8227 4.5387 14.7755C4.51602 14.7284 4.50287 14.6772 4.5 14.625V3.37501C4.50287 3.32278 4.51602 3.27164 4.5387 3.2245C4.56138 3.17736 4.59314 3.13517 4.63216 3.10033C4.67118 3.06549 4.71669 3.0387 4.76608 3.02148C4.81547 3.00427 4.86778 2.99697 4.92 3.00001H9V5.36251C8.98789 5.91498 9.19481 6.44981 9.5756 6.85027C9.95639 7.25072 10.4801 7.4843 11.0325 7.50001H13.5V14.625C13.4971 14.6772 13.484 14.7284 13.4613 14.7755C13.4386 14.8227 13.4069 14.8649 13.3678 14.8997C13.3288 14.9345 13.2833 14.9613 13.2339 14.9785C13.1845 14.9958 13.1322 15.0031 13.08 15Z" fill="#64748B"/>
<path d="M10.5 9.75H9.75V9C9.75 8.80109 9.67098 8.61032 9.53033 8.46967C9.38968 8.32902 9.19891 8.25 9 8.25C8.80109 8.25 8.61032 8.32902 8.46967 8.46967C8.32902 8.61032 8.25 8.80109 8.25 9V9.75H7.5C7.30109 9.75 7.11032 9.82902 6.96967 9.96967C6.82902 10.1103 6.75 10.3011 6.75 10.5C6.75 10.6989 6.82902 10.8897 6.96967 11.0303C7.11032 11.171 7.30109 11.25 7.5 11.25H8.25V12C8.25 12.1989 8.32902 12.3897 8.46967 12.5303C8.61032 12.671 8.80109 12.75 9 12.75C9.19891 12.75 9.38968 12.671 9.53033 12.5303C9.67098 12.3897 9.75 12.1989 9.75 12V11.25H10.5C10.6989 11.25 10.8897 11.171 11.0303 11.0303C11.171 10.8897 11.25 10.6989 11.25 10.5C11.25 10.3011 11.171 10.1103 11.0303 9.96967C10.8897 9.82902 10.6989 9.75 10.5 9.75Z" fill="#64748B"/>
</g>
<defs>
<clipPath id="clip0_202_1448">
<rect width="18" height="18" fill="white"/>
</clipPath>
</defs>
</svg>
