<svg width="22" height="22" viewBox="0 0 22 22" fill="none" xmlns="http://www.w3.org/2000/svg">
<g clip-path="url(#clip0_94_13200)">
<path d="M12.1824 8.5158L8.51578 12.1825C8.42986 12.2677 8.36167 12.3691 8.31513 12.4808C8.26859 12.5925 8.24463 12.7123 8.24463 12.8333C8.24463 12.9543 8.26859 13.0741 8.31513 13.1858C8.36167 13.2975 8.42986 13.3989 8.51578 13.4841C8.60099 13.57 8.70238 13.6382 8.81408 13.6848C8.92579 13.7313 9.0456 13.7553 9.16661 13.7553C9.28762 13.7553 9.40743 13.7313 9.51914 13.6848C9.63084 13.6382 9.73223 13.57 9.81744 13.4841L13.4841 9.81747C13.6567 9.64485 13.7537 9.41074 13.7537 9.16663C13.7537 8.92252 13.6567 8.68841 13.4841 8.5158C13.3115 8.34319 13.0774 8.24622 12.8333 8.24622C12.5892 8.24622 12.3551 8.34319 12.1824 8.5158Z" fill="#97A6BA"/>
<path d="M11.2566 15.95L10.0832 17.1142C9.42455 17.7929 8.53906 18.2054 7.59567 18.2731C6.65228 18.3407 5.71701 18.0587 4.96824 17.4809C4.57249 17.1547 4.24954 16.7493 4.02026 16.2906C3.79098 15.8319 3.66046 15.3302 3.63713 14.8179C3.61381 14.3056 3.6982 13.7942 3.88485 13.3165C4.0715 12.8389 4.35626 12.4058 4.72074 12.045L6.02241 10.7342C6.10832 10.649 6.17652 10.5476 6.22306 10.4359C6.26959 10.3242 6.29356 10.2044 6.29356 10.0834C6.29356 9.96235 6.26959 9.84253 6.22306 9.73083C6.17652 9.61913 6.10832 9.51774 6.02241 9.43253C5.93719 9.34661 5.83581 9.27841 5.7241 9.23188C5.6124 9.18534 5.49258 9.16138 5.37157 9.16138C5.25056 9.16138 5.13075 9.18534 5.01904 9.23188C4.90734 9.27841 4.80596 9.34661 4.72074 9.43253L3.55657 10.6059C2.57588 11.5555 1.97311 12.8288 1.86016 14.1893C1.74721 15.5497 2.13176 16.905 2.94241 18.0034C3.42355 18.6275 4.03199 19.1422 4.72733 19.5132C5.42267 19.8841 6.18897 20.1029 6.97535 20.1549C7.76173 20.2069 8.55018 20.091 9.28832 19.8149C10.0265 19.5387 10.6974 19.1087 11.2566 18.5534L12.5582 17.2517C12.7309 17.0791 12.8278 16.845 12.8278 16.6009C12.8278 16.3567 12.7309 16.1226 12.5582 15.95C12.3856 15.7774 12.1515 15.6804 11.9074 15.6804C11.6633 15.6804 11.4292 15.7774 11.2566 15.95Z" fill="#97A6BA"/>
<path d="M18.0216 2.95166C16.9157 2.13259 15.5494 1.74412 14.1779 1.85883C12.8065 1.97354 11.5237 2.58358 10.5691 3.57499L9.57913 4.58333C9.46597 4.66559 9.37135 4.77069 9.30139 4.89184C9.23143 5.01298 9.18769 5.14747 9.173 5.28659C9.15831 5.42571 9.173 5.56637 9.21612 5.69945C9.25923 5.83253 9.32982 5.95508 9.42329 6.05916C9.50851 6.14508 9.60989 6.21327 9.7216 6.25981C9.8333 6.30635 9.95312 6.33031 10.0741 6.33031C10.1951 6.33031 10.315 6.30635 10.4267 6.25981C10.5384 6.21327 10.6397 6.14508 10.725 6.05916L11.9166 4.85833C12.5717 4.17662 13.4561 3.76184 14.3991 3.69412C15.3421 3.6264 16.2767 3.91054 17.0225 4.49166C17.4212 4.81781 17.7467 5.22431 17.9778 5.68467C18.2089 6.14503 18.3404 6.64891 18.3637 7.16349C18.3871 7.67807 18.3018 8.1918 18.1133 8.6712C17.9248 9.1506 17.6375 9.58491 17.27 9.94583L15.9683 11.2567C15.8824 11.3419 15.8142 11.4433 15.7676 11.555C15.7211 11.6667 15.6971 11.7865 15.6971 11.9075C15.6971 12.0285 15.7211 12.1483 15.7676 12.26C15.8142 12.3717 15.8824 12.4731 15.9683 12.5583C16.0535 12.6442 16.1549 12.7124 16.2666 12.759C16.3783 12.8055 16.4981 12.8295 16.6191 12.8295C16.7401 12.8295 16.86 12.8055 16.9717 12.759C17.0834 12.7124 17.1847 12.6442 17.27 12.5583L18.5716 11.2567C19.1254 10.6976 19.5541 10.0272 19.8293 9.28999C20.1045 8.55274 20.22 7.76544 20.168 6.98023C20.116 6.19502 19.8977 5.42981 19.5277 4.7353C19.1577 4.04079 18.6443 3.43282 18.0216 2.95166Z" fill="#97A6BA"/>
</g>
<defs>
<clipPath id="clip0_94_13200">
<rect width="22" height="22" fill="white"/>
</clipPath>
</defs>
</svg>
