<svg width="140" height="32" viewBox="0 0 140 32" fill="none" xmlns="http://www.w3.org/2000/svg">
<g clip-path="url(#clip0_25_1536)">
<path d="M19.4984 16.9948C18.8362 17.2302 18.2072 17.5302 17.6529 17.9662C16.5143 18.8615 15.8236 20.0342 15.5034 21.4322C15.3392 22.1502 15.2673 22.8775 15.2808 23.6128C15.3168 25.5322 16.6385 27.1462 18.4752 27.6008C18.5444 27.6182 18.6129 27.6388 18.6794 27.6628C13.1246 27.2802 8.65664 21.7788 10.2321 15.7675C11.0273 16.7722 11.9792 17.5755 13.0805 18.2295C13.1171 18.1368 13.0818 18.0595 13.0771 17.9848C13.0072 16.9542 13.0146 15.9248 13.1015 14.8942C13.1951 13.7842 13.3675 12.6888 13.6694 11.6162C14.1572 9.88685 14.9226 8.30351 16.1656 6.97551C17.0605 6.01885 18.1305 5.31485 19.3464 4.82685C19.3919 4.80818 19.4414 4.79818 19.4896 4.78418C19.4923 4.87685 19.497 4.96951 19.497 5.06218C19.4977 9.03951 19.4977 13.0175 19.4984 16.9948Z" fill="#6674CC"/>
<mask id="mask0_25_1536" style="mask-type:luminance" maskUnits="userSpaceOnUse" x="26" y="0" width="13" height="32">
<path d="M26.7061 0.117188H38.7264V31.9459H26.7061V0.117188Z" fill="white"/>
</mask>
<g mask="url(#mask0_25_1536)">
<path d="M34.0533 8.6366C34.0377 9.0446 34.0466 9.53993 34.0846 10.0313C34.1578 10.9846 34.4557 11.8613 35.0148 12.6533C35.5698 13.4393 36.2978 13.9959 37.1765 14.3726C37.5578 14.5359 37.9574 14.6406 38.3666 14.6999C38.64 14.7393 38.832 14.9439 38.8293 15.2006C38.8232 15.7313 38.8415 16.2626 38.8218 16.7939C38.8117 17.0679 38.6861 17.2333 38.4242 17.2993C37.7966 17.4573 37.1731 17.6213 36.6038 17.9479C35.7367 18.4466 35.0758 19.1339 34.6151 20.0159C34.3132 20.5933 34.1605 21.2093 34.0696 21.8539C33.9794 22.4899 34.0201 23.1233 34.0174 23.7573C34.0153 24.3319 34.0038 24.9079 33.9346 25.4759C33.8118 26.4853 33.4753 27.4273 32.9386 28.2993C31.9629 29.8839 30.5944 30.9839 28.8296 31.5919C28.375 31.7486 27.9034 31.8453 27.4237 31.8986C26.9868 31.9479 26.7819 31.7693 26.7805 31.3293C26.7798 30.9339 26.7805 30.5386 26.7825 30.1433C26.7832 29.9753 26.8138 29.8086 26.8958 29.6639C27.0064 29.4699 27.2229 29.4293 27.4197 29.3833C29.198 28.9626 30.4668 27.9413 31.148 26.2433C31.4364 25.5253 31.5612 24.7686 31.5653 23.9933C31.5687 23.1593 31.5714 22.3253 31.5877 21.4919C31.5958 21.0413 31.7234 20.6073 31.8428 20.1773C32.0409 19.4626 32.3734 18.8053 32.7764 18.1826C33.1632 17.5866 33.6381 17.0693 34.1762 16.6073C34.2793 16.5186 34.3824 16.4286 34.4788 16.3326C34.6748 16.1373 34.6782 15.9906 34.4693 15.7966C34.1748 15.5226 33.862 15.2693 33.5804 14.9799C32.8497 14.2299 32.3272 13.3519 31.9534 12.3839C31.6813 11.6799 31.5415 10.9473 31.5219 10.1926C31.4968 9.2426 31.5042 8.2906 31.4445 7.3426C31.3834 6.3906 31.0693 5.51326 30.5048 4.72526C29.8222 3.77193 28.8866 3.18593 27.7908 2.82193C27.6171 2.76393 27.4339 2.7226 27.2521 2.69793C26.9501 2.65726 26.7744 2.49593 26.75 2.19993C26.7025 1.62793 26.6943 1.05593 26.7629 0.482598C26.8002 0.168598 27.0288 0.0925978 27.2867 0.120598C28.6545 0.272598 29.8846 0.771931 30.9947 1.58326C32.2431 2.49726 33.0865 3.70393 33.6245 5.12793C33.8817 5.80793 34.0011 6.52193 34.0235 7.25393C34.0371 7.68593 34.0513 8.11793 34.0547 8.63593L34.0533 8.6366Z" fill="#868686"/>
</g>
<mask id="mask1_25_1536" style="mask-type:luminance" maskUnits="userSpaceOnUse" x="0" y="0" width="13" height="32">
<path d="M0.0917969 0.117188H12.2892V31.9459H0.0917969V0.117188Z" fill="white"/>
</mask>
<g mask="url(#mask1_25_1536)">
<path d="M12.1848 1.40111C12.1705 1.61244 12.2018 1.88978 12.1468 2.16644C12.0823 2.48844 11.9473 2.63911 11.621 2.68711C10.9031 2.79311 10.2592 3.08911 9.6696 3.49111C8.73598 4.12644 8.08258 4.98711 7.7318 6.05778C7.53029 6.67111 7.40341 7.30311 7.39798 7.95244C7.39255 8.69978 7.38712 9.44711 7.39798 10.1944C7.40544 10.6924 7.30909 11.1744 7.19646 11.6518C7.02277 12.3904 6.70727 13.0764 6.31034 13.7238C5.87 14.4411 5.31159 15.0571 4.65955 15.5898C4.61138 15.6291 4.56728 15.6724 4.5225 15.7158C4.27077 15.9564 4.28366 16.1304 4.55371 16.3518C5.76008 17.3438 6.65366 18.5551 7.12794 20.0471C7.33488 20.6984 7.44276 21.3684 7.45226 22.0578C7.46447 22.9704 7.48279 23.8851 7.52893 24.7958C7.57914 25.7938 7.94281 26.7064 8.5745 27.5031C9.18583 28.2738 9.94982 28.8284 10.8794 29.1544C11.1284 29.2418 11.3835 29.3138 11.64 29.3744C12.0864 29.4791 12.2113 29.5678 12.2357 30.0191C12.2635 30.5344 12.3022 31.0551 12.199 31.5698C12.1454 31.8384 12.0443 31.9278 11.7702 31.9298C11.3217 31.9338 10.8855 31.8464 10.4567 31.7258C9.64856 31.4978 8.90357 31.1384 8.21353 30.6584C7.24124 29.9818 6.46301 29.1338 5.88289 28.1064C5.48461 27.4004 5.2166 26.6511 5.06869 25.8518C4.94317 25.1724 4.94181 24.4911 4.94113 23.8071C4.93977 23.2144 4.95334 22.6211 4.89567 22.0304C4.76404 20.6631 4.23074 19.4864 3.17771 18.5658C2.50871 17.9818 1.73997 17.5998 0.866739 17.4231C0.770393 17.4031 0.677438 17.3678 0.581769 17.3458C0.198417 17.2598 0.125818 16.9598 0.114283 16.6418C0.0952852 16.1424 0.0640743 15.6418 0.142102 15.1438C0.185526 14.8678 0.330046 14.7204 0.608231 14.7084C1.38443 14.6751 2.05208 14.3551 2.68715 13.9498C3.52171 13.4178 4.11472 12.6771 4.49264 11.7764C4.68873 11.3098 4.84275 10.8251 4.90381 10.3144C5.00559 9.46511 4.94724 8.61311 4.97438 7.76311C4.99405 7.17244 5.00627 6.57844 5.144 6.00178C5.3713 5.05111 5.75737 4.16578 6.31577 3.35711C7.25414 1.99911 8.527 1.07711 10.0753 0.526445C10.5673 0.351778 11.0754 0.220445 11.6067 0.197111C12.0267 0.178445 12.1597 0.359111 12.1828 0.742445C12.1943 0.939111 12.1848 1.13778 12.1848 1.40044V1.40111Z" fill="#868686"/>
</g>
<path d="M19.4971 16.9945C19.4971 13.0171 19.4964 9.03913 19.4957 5.0618C19.4957 4.96913 19.4903 4.87647 19.4883 4.7838C19.9035 4.58313 20.3547 4.4918 20.7951 4.36913C20.9063 4.33847 20.8683 4.4358 20.8561 4.48846C20.7774 4.8238 20.6919 5.15713 20.6166 5.4938C20.354 6.66913 20.2448 7.86047 20.3283 9.0598C20.3914 9.9618 20.5881 10.8385 21.0482 11.6371C21.3447 12.1511 21.7226 12.5885 22.2695 12.8478C23.068 13.2278 23.8137 13.0885 24.5078 12.5838C25.0167 12.2138 25.3668 11.7151 25.6511 11.1651C25.704 11.0618 25.7529 10.9558 25.8194 10.8205C26.7218 11.9978 27.2985 13.2878 27.4647 14.7365C27.6316 16.1951 27.3521 17.5818 26.6213 18.9085C27.6941 18.9631 28.3916 18.3618 29.0796 17.6458C29.0796 18.0078 29.0945 18.3271 29.0768 18.6438C29.0307 19.4705 28.8936 20.2825 28.6358 21.0725C28.055 22.8491 27.0393 24.3385 25.5988 25.5331C24.7188 26.2625 23.7296 26.8125 22.646 27.1891C22.6236 27.1965 22.5985 27.1978 22.5741 27.2025C22.5327 27.1891 22.4981 27.1958 22.4798 27.2391C22.4018 27.2758 22.3217 27.3071 22.2335 27.3111C22.1996 27.3031 22.169 27.3065 22.1473 27.3385C21.935 27.4118 21.7178 27.4691 21.4953 27.5005C21.46 27.4891 21.4274 27.4885 21.4017 27.5211C21.3691 27.5258 21.3352 27.5298 21.3026 27.5338C21.2558 27.5245 21.2096 27.5171 21.1764 27.5638C21.1438 27.5658 21.1106 27.5685 21.078 27.5711C21.0305 27.5618 20.9837 27.5545 20.9518 27.6045C20.8968 27.6071 20.8419 27.6098 20.7869 27.6131C20.7367 27.6005 20.6858 27.5845 20.6519 27.6425C20.6058 27.6671 20.5569 27.6685 20.5067 27.6605C20.5067 27.6425 20.5067 27.6245 20.506 27.6065C21.2083 27.4258 21.8339 27.1005 22.3624 26.6065C23.0457 25.9678 23.484 25.1931 23.6407 24.2678C23.8626 22.9565 23.5247 21.7978 22.6725 20.7805C22.6365 20.7378 22.5999 20.6951 22.5605 20.6565C22.3692 20.4685 22.2681 20.4651 22.0734 20.6531C21.8562 20.8618 21.6228 21.0285 21.3134 21.0818C20.9396 21.1458 20.6268 21.0231 20.3547 20.7925C19.8798 20.3885 19.6606 19.8478 19.5724 19.2478C19.4666 18.5278 19.6165 17.8565 19.9646 17.2225C20.0046 17.1498 20.0643 17.0678 19.991 16.9845C19.9185 16.9018 19.8269 16.9198 19.7325 16.9471C19.6559 16.9698 19.5765 16.9798 19.4978 16.9951L19.4971 16.9945Z" fill="#4E5DC0"/>
<path d="M20.5052 27.6064C20.5052 27.6244 20.5059 27.6424 20.5059 27.6604C20.3288 27.6911 20.1517 27.7218 19.9258 27.6904C20.1531 27.6924 20.3268 27.6358 20.5052 27.6064Z" fill="#B4B6BB"/>
<path d="M21.1768 27.5632C21.21 27.5172 21.2561 27.5245 21.303 27.5338C21.2684 27.5758 21.2256 27.5832 21.1768 27.5632Z" fill="#B4B6BB"/>
<path d="M20.9502 27.6045C20.9821 27.5545 21.0289 27.5619 21.0771 27.5712C21.0411 27.6065 21.0018 27.6285 20.9502 27.6045Z" fill="#B4B6BB"/>
<path d="M20.6504 27.6425C20.685 27.5845 20.7359 27.6005 20.7861 27.6132C20.7461 27.6472 20.702 27.6625 20.6504 27.6425Z" fill="#B4B6BB"/>
<path d="M22.4805 27.2395C22.4988 27.1955 22.5327 27.1895 22.5741 27.2021C22.5483 27.2281 22.5219 27.2515 22.4805 27.2395Z" fill="#B4B6BB"/>
<path d="M22.1465 27.3393C22.1682 27.3066 22.1987 27.3033 22.2333 27.3113C22.2137 27.3486 22.1845 27.3566 22.1465 27.3393Z" fill="#B4B6BB"/>
<path d="M21.4023 27.5214C21.4274 27.4887 21.46 27.4894 21.4953 27.5007C21.4702 27.534 21.4397 27.54 21.4023 27.5214Z" fill="#B4B6BB"/>
<mask id="mask2_25_1536" style="mask-type:luminance" maskUnits="userSpaceOnUse" x="44" y="4" width="48" height="14">
<path d="M44.5967 4.30957H91.6683V17.1262H44.5967V4.30957Z" fill="white"/>
</mask>
<g mask="url(#mask2_25_1536)">
<path d="M50.7384 17.125C49.4866 17.125 48.4146 16.8576 47.5223 16.323C46.6301 15.783 45.9435 15.0323 45.4624 14.071C44.9875 13.1096 44.75 11.995 44.75 10.7263C44.75 9.45764 44.9875 8.34297 45.4624 7.38164C45.9435 6.4203 46.6301 5.6723 47.5223 5.13764C48.4146 4.59764 49.4866 4.32764 50.7384 4.32764C52.1816 4.32764 53.3839 4.68297 54.346 5.39364C55.3075 6.09897 55.9826 7.05164 56.3707 8.2523L54.2585 8.82364C54.0156 8.02164 53.601 7.3963 53.0162 6.94697C52.4306 6.49164 51.6714 6.2643 50.7384 6.2643C49.8985 6.2643 49.1969 6.44897 48.6351 6.81897C48.0787 7.1883 47.6587 7.70897 47.3744 8.3803C47.0963 9.04564 46.9544 9.82764 46.949 10.7263C46.949 11.625 47.0881 12.4096 47.3663 13.081C47.6499 13.7463 48.0733 14.2643 48.6351 14.6336C49.1969 15.0036 49.8985 15.1883 50.7384 15.1883C51.6714 15.1883 52.4306 14.961 53.0162 14.5063C53.601 14.051 54.0156 13.425 54.2585 12.629L56.3707 13.2003C55.9826 14.401 55.3075 15.3563 54.346 16.0676C53.3839 16.7723 52.1816 17.125 50.7384 17.125ZM63.5729 17.125C62.3211 17.125 61.2491 16.8576 60.3569 16.323C59.4646 15.783 58.778 15.0323 58.2969 14.071C57.822 13.1096 57.5838 11.995 57.5838 10.7263C57.5838 9.45764 57.822 8.34297 58.2969 7.38164C58.778 6.4203 59.4646 5.6723 60.3569 5.13764C61.2491 4.59764 62.3211 4.32764 63.5729 4.32764C64.8248 4.32764 65.8968 4.59764 66.789 5.13764C67.6874 5.6723 68.374 6.4203 68.849 7.38164C69.33 8.34297 69.5709 9.45764 69.5709 10.7263C69.5709 11.995 69.33 13.1096 68.849 14.071C68.374 15.0323 67.6874 15.783 66.789 16.323C65.8968 16.8576 64.8248 17.125 63.5729 17.125ZM63.5729 15.1883C64.4129 15.1943 65.1118 15.0123 65.6675 14.6423C66.2299 14.273 66.6499 13.7523 66.9281 13.081C67.2124 12.4096 67.3542 11.625 67.3542 10.7263C67.3542 9.82764 67.2124 9.0483 66.9281 8.3883C66.6499 7.72297 66.2299 7.20564 65.6675 6.83564C65.1118 6.4663 64.4129 6.27564 63.5729 6.2643C62.733 6.2583 62.0348 6.4403 61.4784 6.8103C60.922 7.17964 60.5021 7.7003 60.2178 8.37164C59.9396 9.04297 59.8005 9.82764 59.8005 10.7263C59.8005 11.625 59.9396 12.407 60.2178 13.0723C60.4959 13.7323 60.9132 14.247 61.4696 14.617C62.0314 14.9863 62.733 15.177 63.5729 15.1883ZM71.3004 16.8696V4.58364H75.29C75.3944 4.58364 75.6 4.5863 75.9074 4.59164C76.2202 4.59764 76.5214 4.61764 76.8111 4.65164C77.8018 4.77697 78.639 5.12364 79.323 5.6923C80.013 6.25564 80.5341 6.97497 80.8876 7.85097C81.2411 8.72697 81.4182 9.68564 81.4182 10.7263C81.4182 11.767 81.2411 12.7256 80.8876 13.6016C80.5341 14.4776 80.013 15.1996 79.323 15.769C78.639 16.3316 77.8018 16.6756 76.8111 16.801C76.5269 16.835 76.229 16.855 75.9155 16.861C75.6027 16.8663 75.3944 16.8696 75.29 16.8696H71.3004ZM73.4302 14.9323H75.29C75.4636 14.9323 75.6842 14.927 75.9508 14.9156C76.2229 14.9043 76.4638 14.8783 76.6721 14.839C77.263 14.731 77.7441 14.4716 78.1152 14.0623C78.4857 13.653 78.7584 13.155 78.9321 12.569C79.1119 11.9836 79.2015 11.369 79.2015 10.7263C79.2015 10.061 79.1119 9.43497 78.9321 8.84897C78.7523 8.26364 78.4742 7.77164 78.0976 7.37297C77.7264 6.97497 77.2515 6.7223 76.6721 6.61364C76.4638 6.5683 76.2229 6.54297 75.9508 6.53697C75.6842 6.52564 75.4636 6.5203 75.29 6.5203H73.4302V14.9323ZM83.4727 16.8696V4.58364H91.5563V6.51164H85.5679V9.5403H90.5135V11.4683H85.5679V14.941H91.5563V16.8696H83.4727Z" fill="white"/>
</g>
<path d="M97.1221 16.8695V4.5835H99.4866V9.63416H105.084V4.5835H107.448V16.8695H105.084V11.8015H99.4866V16.8695H97.1221ZM109.889 16.8695V4.5835H118.059V6.75016H112.253V9.37816H117.016V11.5455H112.253V14.7022H118.059V16.8695H109.889ZM120.317 16.8695V4.5835H122.68V14.7022H128.07V16.8695H120.317ZM129.548 16.8695V4.5835H134.832C134.954 4.5835 135.116 4.58883 135.319 4.60016C135.527 4.60616 135.713 4.62283 135.875 4.6515C136.623 4.7655 137.234 5.00683 137.709 5.37683C138.19 5.74616 138.544 6.21283 138.77 6.77616C138.996 7.3335 139.108 7.95616 139.108 8.64416C139.108 9.33283 138.993 9.95816 138.761 10.5215C138.535 11.0788 138.181 11.5422 137.7 11.9122C137.225 12.2822 136.617 12.5235 135.875 12.6375C135.713 12.6602 135.527 12.6768 135.319 12.6888C135.111 12.7002 134.948 12.7055 134.832 12.7055H131.911V16.8695H129.548ZM131.911 10.5382H134.728C134.849 10.5382 134.983 10.5328 135.128 10.5215C135.273 10.5102 135.406 10.4875 135.527 10.4528C135.846 10.3682 136.092 10.2255 136.266 10.0268C136.44 9.8215 136.559 9.59683 136.623 9.35283C136.692 9.10216 136.727 8.86616 136.727 8.64416C136.727 8.42283 136.692 8.1895 136.623 7.94483C136.559 7.69416 136.44 7.4695 136.266 7.27083C136.092 7.06616 135.846 6.92083 135.527 6.8355C135.406 6.8015 135.273 6.77883 135.128 6.7675C134.983 6.75616 134.849 6.75016 134.728 6.75016H131.911V10.5382Z" fill="#6674CC"/>
<path d="M58.3662 27.3616L58.6688 27.7096H60.0346L59.2218 26.6903C60.7172 24.9583 59.922 21.5703 56.8368 21.5703C52.6885 21.5703 52.6885 27.6923 56.8368 27.6923C57.4421 27.6923 57.9428 27.5736 58.3662 27.3616ZM56.4996 25.103L57.5371 26.351C57.3383 26.4276 57.1049 26.4696 56.8368 26.4696C54.4255 26.4696 54.4255 22.8016 56.8368 22.8016C58.5134 22.8016 59.023 24.559 58.3926 25.6463L57.9604 25.103H56.4996Z" fill="#6674CC"/>
<path d="M66.3175 25.5607V21.604H65.0901V25.5527C65.0901 26.826 63.0852 26.826 63.0852 25.5527V21.604H61.8496V25.5607C61.8496 28.448 66.3175 28.448 66.3175 25.5607Z" fill="#6674CC"/>
<path d="M69.6096 27.6753V21.604H68.374V27.6753H69.6096Z" fill="#6674CC"/>
<path d="M75.624 23.0133L75.7712 21.7653C75.3994 21.604 74.9848 21.5273 74.5526 21.5273C70.3697 21.5273 70.3609 27.692 74.5526 27.692C74.9848 27.692 75.529 27.5907 75.9096 27.4373L75.7454 26.1807C75.512 26.3 75.0886 26.4527 74.5526 26.4527C72.1066 26.4527 72.1066 22.75 74.5526 22.75C75.0886 22.75 75.3906 22.8947 75.624 23.0133Z" fill="#6674CC"/>
<path d="M77.5859 27.6753H78.8215V25.298L80.4635 27.6753H81.9935L79.8155 24.6013L81.8205 21.604H80.3773L78.8215 24.024V21.604H77.5859V27.6753Z" fill="#6674CC"/>
<path d="M87.4287 23.0133L87.5759 21.7653C87.2041 21.604 86.7895 21.5273 86.3573 21.5273C82.1744 21.5273 82.1655 27.692 86.3573 27.692C86.7895 27.692 87.3337 27.5907 87.7143 27.4373L87.5501 26.1807C87.3167 26.3 86.8933 26.4527 86.3573 26.4527C83.9113 26.4527 83.9113 22.75 86.3573 22.75C86.8933 22.75 87.1953 22.8947 87.4287 23.0133Z" fill="white"/>
<path d="M92.3639 27.7604C96.6154 27.7604 96.6154 21.5024 92.3639 21.5024C88.1118 21.5024 88.1118 27.7604 92.3639 27.7604ZM92.3639 26.5038C89.8921 26.5038 89.8921 22.7504 92.3639 22.7504C94.835 22.7504 94.835 26.5038 92.3639 26.5038Z" fill="white"/>
<path d="M100.237 24.1767L97.7999 21.5107H97.4023V27.6754H98.6555V24.2874L100.237 25.9174L101.819 24.2874L101.81 27.6754H103.063V21.5107H102.674L100.237 24.1767Z" fill="white"/>
<path d="M106.38 27.6755V25.3575H107.573C109.967 25.3575 109.975 21.6128 107.573 21.6128H105.145V27.6755H106.38ZM106.38 24.1768V22.8181H107.469C108.299 22.8181 108.299 24.1768 107.469 24.1768H106.38Z" fill="white"/>
<path d="M112.282 27.6753V21.604H111.047V27.6753H112.282Z" fill="white"/>
<path d="M114.366 21.604V27.6753H117.564V26.4613H115.602V21.604H114.366Z" fill="white"/>
<path d="M122.515 27.6753V26.4613H120.553V25.2467H122.178V24.0327H120.553V22.818H122.411V21.604H119.317V27.6753H122.515Z" fill="white"/>
<path d="M127.441 27.6753H128.841L127.406 25.1707C129.221 24.6527 129.005 21.604 126.801 21.604H124.364V27.6753H125.6V25.3573H126.196L127.441 27.6753ZM125.6 24.1767V22.818H126.689C127.527 22.818 127.527 24.1767 126.689 24.1767H125.6Z" fill="white"/>
</g>
<defs>
<clipPath id="clip0_25_1536">
<rect width="139.13" height="32" fill="white"/>
</clipPath>
</defs>
</svg>
