<svg width="22" height="22" viewBox="0 0 22 22" fill="none" xmlns="http://www.w3.org/2000/svg">
<path d="M18.6083 12.3109C18.3774 12.2389 18.1273 12.2611 17.9127 12.3728C17.698 12.4844 17.5362 12.6763 17.4625 12.9067C17.0294 14.2308 16.1852 15.3822 15.0526 16.1933C13.9199 17.0045 12.558 17.4331 11.165 17.4167C9.44199 17.4363 7.78153 16.7718 6.54773 15.5689C5.31392 14.3661 4.60749 12.723 4.58333 11.0001C4.60749 9.2771 5.31392 7.63404 6.54773 6.43117C7.78153 5.2283 9.44199 4.5638 11.165 4.58339C12.7211 4.57963 14.2293 5.12129 15.4275 6.11422L13.4383 5.78422C13.3191 5.7646 13.1972 5.76875 13.0796 5.79642C12.962 5.82408 12.851 5.87472 12.753 5.94543C12.6551 6.01614 12.5721 6.10551 12.5087 6.20842C12.4454 6.31132 12.4031 6.42573 12.3842 6.54505C12.3646 6.66427 12.3687 6.78619 12.3964 6.90379C12.424 7.0214 12.4747 7.13238 12.5454 7.23035C12.6161 7.32831 12.7055 7.41134 12.8084 7.47464C12.9113 7.53795 13.0257 7.58028 13.145 7.59922L17.0317 8.24089H17.1875C17.2938 8.24076 17.3993 8.22215 17.4992 8.18589C17.5327 8.17314 17.5638 8.15452 17.5908 8.13089C17.6566 8.10645 17.7183 8.07247 17.7742 8.03005L17.8567 7.92922C17.8567 7.88339 17.9392 7.84672 17.9758 7.79172C18.0125 7.73672 17.9758 7.70005 18.0217 7.66339C18.047 7.61 18.0684 7.55486 18.0858 7.49839L18.7733 3.83172C18.7962 3.71134 18.7951 3.58764 18.7702 3.46767C18.7453 3.3477 18.697 3.23382 18.628 3.13253C18.5591 3.03123 18.4708 2.94451 18.3684 2.87731C18.2659 2.81012 18.1512 2.76376 18.0308 2.74089C17.9105 2.71801 17.7868 2.71908 17.6668 2.74401C17.5468 2.76895 17.4329 2.81727 17.3316 2.88622C17.1271 3.02546 16.9862 3.24027 16.94 3.48339L16.6925 4.81255C15.158 3.48269 13.1956 2.75045 11.165 2.75005C8.95577 2.7305 6.82902 3.58816 5.2514 5.13484C3.67379 6.68151 2.77419 8.79087 2.75 11.0001C2.77419 13.2092 3.67379 15.3186 5.2514 16.8653C6.82902 18.4119 8.95577 19.2696 11.165 19.2501C12.9554 19.2776 14.7073 18.7295 16.1628 17.6866C17.6183 16.6436 18.7005 15.1609 19.25 13.4567C19.2848 13.3394 19.2957 13.2162 19.2821 13.0946C19.2685 12.9729 19.2307 12.8552 19.1709 12.7484C19.1111 12.6416 19.0305 12.5479 18.9339 12.4728C18.8373 12.3976 18.7266 12.3426 18.6083 12.3109Z" fill="#64748B"/>
</svg>
