<svg width="20" height="20" viewBox="0 0 20 20" fill="none" xmlns="http://www.w3.org/2000/svg">
<path d="M9.58366 12.1665L11.9253 9.99984L9.58366 7.83317V12.1665Z" fill="white"/>
<path d="M10.0003 1.6665C8.35215 1.6665 6.74099 2.15525 5.37058 3.07092C4.00017 3.9866 2.93206 5.28809 2.30133 6.81081C1.6706 8.33353 1.50558 10.0091 1.82712 11.6256C2.14866 13.2421 2.94234 14.727 4.10777 15.8924C5.27321 17.0578 6.75807 17.8515 8.37458 18.173C9.99109 18.4946 11.6666 18.3296 13.1894 17.6988C14.7121 17.0681 16.0136 16 16.9292 14.6296C17.8449 13.2592 18.3337 11.648 18.3337 9.99984C18.3337 8.90549 18.1181 7.82186 17.6993 6.81081C17.2805 5.79976 16.6667 4.8811 15.8929 4.10728C15.1191 3.33346 14.2004 2.71963 13.1894 2.30084C12.1783 1.88205 11.0947 1.6665 10.0003 1.6665ZM13.3337 10.9832L10.3003 13.7915C10.0353 14.0314 9.69109 14.1649 9.33366 14.1665C9.1353 14.166 8.93931 14.1234 8.75866 14.0415C8.51288 13.9421 8.30231 13.7716 8.15387 13.5519C8.00544 13.3323 7.92587 13.0733 7.92533 12.8082V7.1915C7.92587 6.92637 8.00544 6.66742 8.15387 6.44773C8.30231 6.22804 8.51288 6.0576 8.75866 5.95817C9.01185 5.84417 9.29297 5.80709 9.56706 5.85153C9.84115 5.89598 10.0961 6.02 10.3003 6.20817L13.3337 9.0165C13.4701 9.14142 13.579 9.29335 13.6535 9.46264C13.728 9.63193 13.7665 9.81487 13.7665 9.99984C13.7665 10.1848 13.728 10.3677 13.6535 10.537C13.579 10.7063 13.4701 10.8583 13.3337 10.9832Z" fill="white"/>
</svg>
